<?xml version="1.0" encoding="UTF-8"?>
<svg xmlns="http://www.w3.org/2000/svg" onmouseup="{ if(window.parent.document.onmouseup) window.parent.document.onmouseup(arguments[0]);}" width="36" viewBox="0 0 36 36" id="S_Crosshairs_18_N_2x" height="36" data-name="S_Crosshairs_18_N@2x"><defs><style>
      .fill {
        fill: #707070;
      }

      
    </style></defs><path data-cppathid="10000" d="M18,15.8A2.2,2.2,0,1,0,20.2,18,2.2,2.2,0,0,0,18,15.8Z" class="fill"/><path data-cppathid="10001" d="M18,2A16,16,0,1,0,34,18,16,16,0,0,0,18,2Zm2,29.552V24H16v7.552A13.7,13.7,0,0,1,4.448,20H12V16H4.448A13.7,13.7,0,0,1,16,4.448V12h4V4.448A13.7,13.7,0,0,1,31.552,16H24v4h7.552A13.7,13.7,0,0,1,20,31.552Z" class="fill"/></svg>