<?xml version="1.0" encoding="UTF-8"?>
<svg xmlns="http://www.w3.org/2000/svg" onmouseup="{ if(window.parent.document.onmouseup) window.parent.document.onmouseup(arguments[0]);}" xml:space="preserve" viewBox="0 0 64 64" version="1.1" width="800px" height="800px" xmlns:xlink="http://www.w3.org/1999/xlink"><style type="text/css">
	.st0{fill:#C75C5C;}
	.st1{opacity:0.2;}
	.st2{fill:#231F20;}
	.st3{fill:#F5CF87;}
	.st4{fill:#4F5D73;}
</style><g id="Layer_1"><g><circle data-cppathid="10000" r="32" cy="32" cx="32" class="st0"/></g><g class="st1"><path data-cppathid="10001" d="M17,50c-4.4,0-6.2-3.1-4-6.9L28,17c2.2-3.8,5.8-3.8,8,0l15,26.1c2.2,3.8,0.4,6.9-4,6.9H17z" class="st2"/></g><g><path data-cppathid="10002" d="M17,48c-4.4,0-6.2-3.1-4-6.9L28,15c2.2-3.8,5.8-3.8,8,0l15,26.1c2.2,3.8,0.4,6.9-4,6.9H17z" class="st3"/></g><g><path data-cppathid="10003" d="M34,32c0,1.1-0.9,2-2,2l0,0c-1.1,0-2-0.9-2-2v-8c0-1.1,0.9-2,2-2l0,0c1.1,0,2,0.9,2,2V32z" class="st4"/></g><g><path data-cppathid="10004" d="M34,40c0,1.1-0.9,2-2,2l0,0c-1.1,0-2-0.9-2-2l0,0c0-1.1,0.9-2,2-2l0,0C33.1,38,34,38.9,34,40L34,40z" class="st4"/></g></g><g id="Layer_2"/></svg>